# xmcd CD database file
#
# Track frame offsets:
#	150
#	3206
#	70694
#	116705
#	190906
#	242990
#	270051
#	309219
#
# Disc length: 4504 seconds
#
# Revision: 0
# Processed by: cddbd v1.5.1PL0 Copyright (c) Steve Scherf et al.
# Submitted via: CDex 1.51
#
DISCID=5b119608
DTITLE=Zero - 96-12-31 Disc1
DYEAR=1996
DGENRE=Jazz
TTITLE0=Intro
TTITLE1=Tongue N Groove
TTITLE2=Theme From Nancy Germany
TTITLE3=Pits Of Thrunder
TTITLE4=Like A Rolling Stone
TTITLE5=Look-ka Py Py
TTITLE6=Forever Is Nowhere
TTITLE7=Did I Mention
EXTD=YEAR: 1996
EXTT0=
EXTT1=
EXTT2=
EXTT3=
EXTT4=
EXTT5=
EXTT6=
EXTT7=
PLAYORDER=
